<svg width="48" height="48" viewBox="0 0 48 48" fill="none" xmlns="http://www.w3.org/2000/svg">
<mask id="path-2-inside-1_690_9950" fill="white">
<path d="M14 15C14 14.4477 14.4477 14 15 14H22C22.5523 14 23 14.4477 23 15V22C23 22.5523 22.5523 23 22 23H15C14.4477 23 14 22.5523 14 22V15Z"/>
</mask>
<path d="M15 14V15.5H22V14V12.5H15V14ZM23 15H21.5V22H23H24.5V15H23ZM22 23V21.5H15V23V24.5H22V23ZM14 22H15.5V15H14H12.5V22H14ZM15 23V21.5C15.2761 21.5 15.5 21.7239 15.5 22H14H12.5C12.5 23.3807 13.6193 24.5 15 24.5V23ZM23 22H21.5C21.5 21.7239 21.7239 21.5 22 21.5V23V24.5C23.3807 24.5 24.5 23.3807 24.5 22H23ZM22 14V15.5C21.7239 15.5 21.5 15.2761 21.5 15H23H24.5C24.5 13.6193 23.3807 12.5 22 12.5V14ZM15 14V12.5C13.6193 12.5 12.5 13.6193 12.5 15H14H15.5C15.5 15.2761 15.2761 15.5 15 15.5V14Z" fill="#9B9894" mask="url(#path-2-inside-1_690_9950)"/>
<mask id="path-4-inside-2_690_9950" fill="white">
<path d="M14 26C14 25.4477 14.4477 25 15 25H22C22.5523 25 23 25.4477 23 26V33C23 33.5523 22.5523 34 22 34H15C14.4477 34 14 33.5523 14 33V26Z"/>
</mask>
<path d="M15 25V26.5H22V25V23.5H15V25ZM23 26H21.5V33H23H24.5V26H23ZM22 34V32.5H15V34V35.5H22V34ZM14 33H15.5V26H14H12.5V33H14ZM15 34V32.5C15.2761 32.5 15.5 32.7239 15.5 33H14H12.5C12.5 34.3807 13.6193 35.5 15 35.5V34ZM23 33H21.5C21.5 32.7239 21.7239 32.5 22 32.5V34V35.5C23.3807 35.5 24.5 34.3807 24.5 33H23ZM22 25V26.5C21.7239 26.5 21.5 26.2761 21.5 26H23H24.5C24.5 24.6193 23.3807 23.5 22 23.5V25ZM15 25V23.5C13.6193 23.5 12.5 24.6193 12.5 26H14H15.5C15.5 26.2761 15.2761 26.5 15 26.5V25Z" fill="#9B9894" mask="url(#path-4-inside-2_690_9950)"/>
<mask id="path-6-inside-3_690_9950" fill="white">
<path d="M25 15C25 14.4477 25.4477 14 26 14H33C33.5523 14 34 14.4477 34 15V22C34 22.5523 33.5523 23 33 23H26C25.4477 23 25 22.5523 25 22V15Z"/>
</mask>
<path d="M26 14V15.5H33V14V12.5H26V14ZM34 15H32.5V22H34H35.5V15H34ZM33 23V21.5H26V23V24.5H33V23ZM25 22H26.5V15H25H23.5V22H25ZM26 23V21.5C26.2761 21.5 26.5 21.7239 26.5 22H25H23.5C23.5 23.3807 24.6193 24.5 26 24.5V23ZM34 22H32.5C32.5 21.7239 32.7239 21.5 33 21.5V23V24.5C34.3807 24.5 35.5 23.3807 35.5 22H34ZM33 14V15.5C32.7239 15.5 32.5 15.2761 32.5 15H34H35.5C35.5 13.6193 34.3807 12.5 33 12.5V14ZM26 14V12.5C24.6193 12.5 23.5 13.6193 23.5 15H25H26.5C26.5 15.2761 26.2761 15.5 26 15.5V14Z" fill="#9B9894" mask="url(#path-6-inside-3_690_9950)"/>
<mask id="path-8-inside-4_690_9950" fill="white">
<path d="M25 26C25 25.4477 25.4477 25 26 25H33C33.5523 25 34 25.4477 34 26V33C34 33.5523 33.5523 34 33 34H26C25.4477 34 25 33.5523 25 33V26Z"/>
</mask>
<path d="M26 25V26.5H33V25V23.5H26V25ZM34 26H32.5V33H34H35.5V26H34ZM33 34V32.5H26V34V35.5H33V34ZM25 33H26.5V26H25H23.5V33H25ZM26 34V32.5C26.2761 32.5 26.5 32.7239 26.5 33H25H23.5C23.5 34.3807 24.6193 35.5 26 35.5V34ZM34 33H32.5C32.5 32.7239 32.7239 32.5 33 32.5V34V35.5C34.3807 35.5 35.5 34.3807 35.5 33H34ZM33 25V26.5C32.7239 26.5 32.5 26.2761 32.5 26H34H35.5C35.5 24.6193 34.3807 23.5 33 23.5V25ZM26 25V23.5C24.6193 23.5 23.5 24.6193 23.5 26H25H26.5C26.5 26.2761 26.2761 26.5 26 26.5V25Z" fill="#9B9894" mask="url(#path-8-inside-4_690_9950)"/>
</svg>
